<?xml version="1.0" encoding="utf-8"?>
<!-- Generator: Adobe Illustrator 15.0.2, SVG Export Plug-In . SVG Version: 6.00 Build 0)  -->
<!DOCTYPE svg PUBLIC "-//W3C//DTD SVG 1.1//EN" "http://www.w3.org/Graphics/SVG/1.1/DTD/svg11.dtd">
<svg version="1.1" id="Layer_1" xmlns="http://www.w3.org/2000/svg" xmlns:xlink="http://www.w3.org/1999/xlink" x="0px" y="0px"
	 width="523.5px" height="523.5px" viewBox="0 0 523.5 523.5" enable-background="new 0 0 523.5 523.5" xml:space="preserve">
<path fill-rule="evenodd" clip-rule="evenodd" fill="#ED1F24" d="M29.838,0h463.824C510.142,0,523.5,13.359,523.5,29.838v463.823
	c0,16.479-13.358,29.839-29.838,29.839H29.838C13.359,523.5,0,510.141,0,493.661V29.838C0,13.359,13.359,0,29.838,0z"/>
<path fill-rule="evenodd" clip-rule="evenodd" fill="none" stroke="#FFFFFF" stroke-width="10" stroke-miterlimit="10" d="
	M50.539,19.649h428.737c16.479,0,29.838,13.359,29.838,29.838V476.82c0,16.479-12.657,31.242-29.136,31.242H51.241
	c-16.479,0-32.645-14.061-32.645-30.54V50.188C18.596,33.709,34.06,19.649,50.539,19.649z"/>
<path fill-rule="evenodd" clip-rule="evenodd" fill="#FFFFFF" d="M481.045,53.333c7.017-7.018,9.123-17.543-28.771-16.14
	c-37.895,1.403-58.245,4.21-60.35,16.14c-2.105,11.93-9.122,28.07,27.368,32.982c36.491,4.912,49.123-4.21,49.123,24.561
	s0.702,125.612,1.403,137.542c0.406,6.899,9.505,18.769,14.036,0c4.912-20.351,1.403-63.858,2.105-85.613
	c0.702-21.754,6.315-77.191-14.737-86.314c-18.439-7.99-37.326-5.861-58.245-7.72c-11.271-1.001-9.123-11.228,4.913-13.333
	C423.611,54.579,474.027,60.35,481.045,53.333z"/>
<path fill-rule="evenodd" clip-rule="evenodd" fill="#FFFFFF" d="M276.837,40.701c0,0-24.561,10.526,11.93,14.736
	c36.491,4.21,58.247-0.416,60.35,6.316c3.509,11.228-36.491,9.824-51.228,9.123c-14.736-0.702-28.771,18.245-28.07,39.298
	c0.702,21.052,0,59.648,0,70.174c0,10.526,0.012,58.982,2.105,65.263c2.807,8.42,8.257,18.414,12.631,3.508
	c3.442-11.729,4.21-15.438,3.509-31.579c-0.702-16.14-1.403-82.104-0.702-95.437c0.702-13.333-4.913-35.087,25.263-32.982
	c30.175,2.105,52.926-6.248,53.333-19.648c0.701-23.158-4.776-29.978-47.017-30.877C285.96,37.895,276.837,40.701,276.837,40.701z"
	/>
<path fill-rule="evenodd" clip-rule="evenodd" fill="#FFFFFF" d="M337.188,96.139c39.999-2.105,96.384-2.391,113.682,8.421
	c7.419,4.637,19.087,38.624,0.856,57.005c-9.36,9.437-27.115,9.076-56.294,10.362c-68.059,3.001-104.083-0.099-101.051-36.49
	C296.486,110.174,297.188,98.244,337.188,96.139z"/>
<path fill-rule="evenodd" clip-rule="evenodd" fill="#ED1F24" d="M391.222,113.683c9.824-1.404,14.736,0,24.561,0
	s26.666-1.404,26.666,4.912c0,6.315,0,6.315-17.543,6.315s-39.478,2.33-39.648-2.105
	C384.906,113.683,381.397,115.086,391.222,113.683z"/>
<path fill-rule="evenodd" clip-rule="evenodd" fill="#ED1F24" d="M345.257,114.033c10.526-0.702,21.616-1.471,21.754,2.105
	c0.228,5.879,0,8.42,0,8.42h-40.701c0,0-25.795,2.775-13.684-8.42C315.631,113.361,334.731,114.735,345.257,114.033z"/>
<path fill-rule="evenodd" clip-rule="evenodd" fill="#ED1F24" d="M384.204,143.857c-0.701,3.509-0.701,9.123,2.807,9.824
	c3.508,0.702,17.544-0.702,25.263-0.702s26.255,0.469,30.174-4.913c6.039-8.289-13.333-7.719-20.351-6.315
	C415.081,143.155,384.906,140.349,384.204,143.857z"/>
<path fill-rule="evenodd" clip-rule="evenodd" fill="#FFFFFF" d="M309.819,185.962c24.561-7.018,137.542-12.632,145.963,11.228
	c8.257,23.396,6.315,52.631-21.754,57.543c-28.07,4.912-131.487,10.145-136.139-15.438
	C292.276,208.418,298.289,189.256,309.819,185.962z"/>
<path fill-rule="evenodd" clip-rule="evenodd" fill="#ED1F24" d="M345.608,199.295c15.438,0,101.051-5.392,100.349,11.93
	c-0.851,21.035,10.631,30.382-62.454,28.771c-75.077-1.654-73.645-1.481-70.175-28.07
	C315.238,197.29,334.989,199.295,345.608,199.295z"/>
<path fill-rule="evenodd" clip-rule="evenodd" fill="#FFFFFF" d="M344.201,210.666c0.258,0.008-23.553,0.352-27.013,6.874
	c0.341-0.643-5.822,6.988,9.146,9.353c13.176,2.083,117.736,7.895,116.466-7.248c-0.682-8.128-36.964-10.398-50.881-8.979
	C383.48,211.527,370.119,211.393,344.201,210.666z"/>
<path fill-rule="evenodd" clip-rule="evenodd" fill="#FFFFFF" d="M276.837,276.486c5.27-5.27,23.639-6.467,37.755-2.95
	c10.319,2.572,16.165,7.597,19.788,16.985c4.637,12.017,4.059,22.548,3.92,52.997c-0.252,55.171-0.751,129.292-1.113,130.859
	c-2.105,9.123-8.955,32.008-15.438,8.07c-4.562-16.843-1.754-84.911-2.807-123.858c-0.511-18.888,0-23.858-1.053-24.209
	c-6.138-2.046-16.842-3.86-25.614,3.158c-6.39,5.112-3.509,42.807-4.21,59.648s3.859,93.332-8.772,93.683
	c-13.547,0.376-9.824-51.37-9.824-81.051c0-28.772-2.105-71.929,6.315-80.35c8.421-8.42,25.78-17.811,42.456-14.385
	c3.074,0.631,2.807-15.438-2.807-20.351c-5.614-4.913-36.49-2.807-38.596-6.316C274.732,284.907,267.715,285.609,276.837,276.486z"
	/>
<path fill-rule="evenodd" clip-rule="evenodd" fill="#FFFFFF" d="M356.134,285.609c10.23,10.229,61.047,6.145,82.806,5.614
	c28.771-0.702,40.701,8.421,18.246,9.825c-35.362,2.21-68.771-0.702-84.209,4.912c-7.511,2.73-23.229-0.563-19.649,39.999
	c2.105,23.859,18.229,24.794,26.666,25.263c12.632,0.701,21.053,10.526-2.807,7.719c-23.859-2.807-22.456,12.632-21.754,12.632
	s5.851,14.314,44.21,2.807c7.018-2.105,11.228-17.544,11.929-20.351c0.703-2.807,16.14-1.403,16.14-1.403
	s-7.017,26.666,30.877,24.561s27.369-7.719,20.351-14.737c-7.018-7.017-37.894,0.702-32.982-7.017
	c4.913-7.72,28.573,1.117,37.895-14.036c5.466-8.885,7.719-33.683-23.158-34.385c-35.107-0.798-91.929,2.105-89.122-2.807
	c5.614-9.824,83.508-2.105,96.841-7.018c26.765-9.86,22.357-40.665-2.807-42.806c-32.982-2.807-103.156-4.912-108.77,2.105
	C351.222,283.504,355.433,284.907,356.134,285.609z"/>
<path fill-rule="evenodd" clip-rule="evenodd" fill="#ED1F24" d="M372.977,344.556c13.278-1.207,91.929-2.807,94.735,2.105
	c2.807,4.913,2.368,7.541-19.649,8.421c-17.543,0.702-66.364,0.743-68.771-0.702C375.784,352.274,365.257,345.257,372.977,344.556z"
	/>
<path fill-rule="evenodd" clip-rule="evenodd" fill="#FFFFFF" d="M410.87,411.923c0,1.378-59.834-6.087-54.736,11.228
	c3.032,10.297,34.372,9.122,52.631,9.122c2.105,0,0.702,7.719-1.403,8.421c-11.492,3.832-51.228-7.017-55.438,20.351
	c-3.474,22.582,2.086,29.745,9.825,30.176c12.631,0.701,8.543-17.153,10.175-23.158c2.997-11.029,38.212-8.453,38.245-7.018
	c0.423,18.916,7.923,35.205,50.525,30.176c50.525-5.965,14.035-17.544,1.403-17.544c-12.63,0-37.542,4.961-33.333-12.982
	c0.08-0.342,46.729,5.563,53.684-12.983c6.316-16.841,3.509-41.403,2.105-42.104c-1.404-0.702-16.504-3.753-15.438,2.105
	c1.404,7.719-13.333,4.912-23.158,4.912c-9.823,0-17.543,2.807-18.245-2.105c-0.702-4.913-0.23-15.207-9.122-14.737
	c-10.347,0.547-7.72,14.737-7.72,14.737S410.87,404.204,410.87,411.923z"/>
<path fill-rule="evenodd" clip-rule="evenodd" fill="#ED1F24" d="M429.116,432.273c7.999-0.631,39.298-3.859,39.649,1.404
	c0.295,4.429,1.049,6.235-19.298,7.017c-9.123,0.351-20.702,1.053-20.702,0.703C428.765,437.817,428.126,432.352,429.116,432.273z"
	/>
<path fill-rule="evenodd" clip-rule="evenodd" fill="#FFFFFF" d="M47.368,61.052c34.139,4.342,82.729-2.018,83.507,1.403
	c2.218,9.741,2.505,12.977,0,13.333c-11.631,1.658-43.508-0.702-52.631,0.702c-9.123,1.403-33.684-3.509-42.806,16.14
	c-9.123,19.649-1.403,44.21,4.21,44.21s11.93-7.018,11.228-18.245c-0.702-11.229-2.807-23.859,4.21-23.859
	s14.736-2.807,15.438,0.702c3.005,15.029,4.912,38.596,35.789,37.192c32.254-1.466,80.701,5.614,93.332-9.824
	c12.631-15.439,5.614-24.561,9.824-26.667s21.052-4.912,23.158,4.21c2.105,9.123,0,38.596,8.421,37.192
	c8.421-1.403,11.93-31.579,6.315-47.718c-5.614-16.14-69.473-15.438-82.806-14.035c-13.333,1.404-16.14-2.807-14.736-8.421
	c1.403-5.614,4.21-8.421,14.736-5.614c10.526,2.807,79.999,0.702,85.612-4.912c5.614-5.614-2.807-17.543-42.806-14.035
	c-40,3.508-128.956,2.756-151.577,2.105C30.688,44.189,19.68,57.53,47.368,61.052z"/>
<path fill-rule="evenodd" clip-rule="evenodd" fill="#ED1F24" d="M130.875,94.735c2.105,3.509,2.105,16.842,1.403,19.648
	c-0.702,2.808-20.351,2.808-32.28-0.701c-11.929-3.509-11.87-13.511-9.824-19.649C90.876,91.928,128.77,91.227,130.875,94.735z"/>
<path fill-rule="evenodd" clip-rule="evenodd" fill="#ED1F24" d="M150.524,94.033c1.83-1.279,25.964-1.403,31.579-1.403
	c5.614,0,11.929,3.509,9.824,10.526c-2.105,7.018-6.316,11.93-23.158,11.93s-18.947,0.702-18.947-4.912
	C149.822,100.349,148.705,95.305,150.524,94.033z"/>
<path fill-rule="evenodd" clip-rule="evenodd" fill="#FFFFFF" d="M80.35,140.699c5.514-0.027,9.123,1.559,9.123,20
	c0,7.018,21.754,1.962,21.052-1.403c-1.576-7.557,0.702-20,9.824-18.597c9.123,1.404,12.147,3.064,9.123,20
	c-3.509,19.648-21.151,20.336-30.877,18.947c-9.824-1.404-13.333,11.929-4.21,11.929c9.123,0,43.739-2.362,35.789,50.525
	c-4.853,32.285-19.649,4.21-19.649,4.21s2.105-26.666-2.105-32.28c-4.21-5.613-9.825-6.315-16.14-4.912
	c-6.316,1.403-2.105,29.474-4.21,37.192c-2.105,7.719-9.123,22.456-14.035,3.509s0-36.49-4.21-39.298
	c-4.21-2.807-15.442-3.73-18.245,4.211c-4.21,11.93-0.702,27.368-2.807,36.49c-1.677,7.269-14.736,18.246-16.842-13.333
	c-2.012-30.181,8.07-39.648,18.596-44.561s20.702,0.351,22.105-5.965s-2.807-7.719-9.123-7.719s-22.456,2.807-27.368-9.825
	s-3.509-28.07,2.105-28.07c5.614,0,11.93,0,11.93,11.228s14.035,10.526,18.947,10.526S72.378,140.74,80.35,140.699z"/>
<path fill-rule="evenodd" clip-rule="evenodd" fill="#FFFFFF" d="M197.541,141.05c7.018-2.807,11.453,2.862,11.93,21.052
	c0.112,4.267,18.433,0.584,22.456-1.053c2.817-1.146,0-22.104,9.123-20.701c9.122,1.403,9.268,2.838,9.824,22.456
	c0.468,16.511-26.063,18.231-35.789,16.842c-9.825-1.404-9.825,11.929-0.702,11.929s47.949-0.958,35.789,50.525
	c-7.504,31.772-16.14,2.807-16.14,2.807s1.403-23.859-2.807-29.473s-12.631-7.719-18.947-6.316
	c-6.316,1.403-2.105,29.474-4.21,37.192c-2.105,7.719-9.123,22.456-14.035,3.509s0-36.49-4.21-39.298
	c-4.21-2.807-15.442-3.028-18.245,4.913c-4.21,11.93-2.105,26.666-4.21,35.789c-1.678,7.269-15.159,13.332-15.438-13.333
	c-0.351-33.406,7.368-39.999,17.895-44.911c10.526-4.913,21.403,0.701,22.807-5.614c1.403-6.315-2.807-7.719-9.123-7.719
	c-6.316,0-25.263,0-30.175-12.632c-4.912-12.631-0.702-25.263,4.913-25.263c5.614,0,11.93,0,11.93,11.228
	s14.035,10.526,18.947,10.526S190.523,143.857,197.541,141.05z"/>
<path fill-rule="evenodd" clip-rule="evenodd" fill="#FFFFFF" d="M85.262,268.417c1.674-0.533,118.441-0.52,129.472,0.351
	c12.33,0.974,24.549,4.566,31.422,15.345c7.991,12.533,6.895,31.895-1.247,46.408c-3.366,6-5.651,8.087-14.696,10.338
	c-26.939,6.705-73.021,2.645-73.021,2.645c-33.333,2.104-57.715-3.078-69.122,1.403c-9.825,3.86-6.667,14.386-1.754,17.193
	c11.076,6.329,97.885-1.175,139.951,5.108c9.928,1.483,16.284,7.469,19.344,12.435c0.943,1.531,5.712,8.702,5.868,17.204
	c0.558,30.521,2.441,90.283-8.324,91.567c-12.719,1.517-11.494-40.609-10.526-59.648c1.052-20.701,5.964-46.315-25.614-45.613
	c-31.579,0.702-112.981,4.562-128.068-4.562c-14.462-8.744-12.982-21.052-11.579-29.122c1.769-10.173,5.844-17.153,21.878-20.447
	c8.863-1.821,22.354-1.542,38.822-2.359c49.473-2.456,101.051,6.316,104.56-7.719c3.016-12.064,2.807-26.315-5.614-29.123
	c-8.421-2.807-59.042-6.124-61.052-2.105c-2.105,4.21-1.095,33.992-9.473,35.087c-10.11,1.321-9.908-24.675-10.526-33.333
	c-0.351-4.912-19.95-0.699-34.736-1.403c-14.736-0.702-43.157-0.351-44.561-8.771C66.044,275.566,69.823,273.329,85.262,268.417z"/>
<path fill-rule="evenodd" clip-rule="evenodd" fill="#FFFFFF" d="M50.876,281.75c-0.767-5.042,2.574,11.884,2.019,35.769
	c-0.726,31.174,0.671,77.578,0.086,83.176c-0.356,3.408,45.673-0.145,76.136,0.712c50.724,1.428,81.929-3.419,85.265,7.007
	c2.807,8.771-14.736,11.579-30.876,11.579s-129.121-2.105-129.121,1.404c0,3.509-5.992,13.777,6.316,12.28
	c3.335-0.406,37.387,0.088,72.98,0.256c40.186,0.19,82.238,0.543,82.456,9.569c0.356,14.757-155.671,6.56-161.752,8.771
	c-3.859,1.404-3.859,11.579,7.369,14.386c11.228,2.807,155.256-8.253,154.734,12.632c-0.334,13.37-70.525,9.123-95.788,9.123
	s-83.858,9.824-85.963-34.736c-2.252-47.671-1.28-169.483,2.456-176.488C42.806,266.662,48.623,266.931,50.876,281.75z"/>
<path fill-rule="evenodd" clip-rule="evenodd" fill="#ED1F24" d="M345.608,142.454c10.526-0.702,21.596-1.47,21.754,2.105
	c0.228,5.177,0,8.421,0,8.421h-40.702c0,0-20.181-1.084-14.035-9.825C314.98,139.809,335.082,143.155,345.608,142.454z"/>
</svg>
